<svg xmlns="http://www.w3.org/2000/svg" xmlns:xlink="http://www.w3.org/1999/xlink" width="500" zoomAndPan="magnify" viewBox="0 0 375 374.999991" height="500" preserveAspectRatio="xMidYMid meet" version="1.2"><defs><clipPath id="ea74237831"><path d="M 28 59.597656 L 300.839844 59.597656 L 300.839844 280.847656 L 28 280.847656 Z M 28 59.597656 "/></clipPath><clipPath id="6a8b56adfe"><path d="M 152 101 L 201 101 L 201 128 L 152 128 Z M 152 101 "/></clipPath><clipPath id="8db712a516"><path d="M 151.847656 102.816406 L 200.503906 99.792969 L 202.363281 129.734375 L 153.707031 132.757812 Z M 151.847656 102.816406 "/></clipPath><clipPath id="b5c59aac52"><path d="M 151.847656 102.816406 L 200.503906 99.792969 L 202.363281 129.734375 L 153.707031 132.757812 Z M 151.847656 102.816406 "/></clipPath><clipPath id="073d983409"><path d="M 163 126 L 193 126 L 193 132 L 163 132 Z M 163 126 "/></clipPath><clipPath id="09f3746502"><path d="M 151.847656 102.816406 L 200.503906 99.792969 L 202.363281 129.734375 L 153.707031 132.757812 Z M 151.847656 102.816406 "/></clipPath><clipPath id="d8de9efb5c"><path d="M 151.847656 102.816406 L 200.503906 99.792969 L 202.363281 129.734375 L 153.707031 132.757812 Z M 151.847656 102.816406 "/></clipPath><clipPath id="05579e6434"><path d="M 164 108 L 171 108 L 171 118 L 164 118 Z M 164 108 "/></clipPath><clipPath id="4ac95a865a"><path d="M 151.847656 102.816406 L 200.503906 99.792969 L 202.363281 129.734375 L 153.707031 132.757812 Z M 151.847656 102.816406 "/></clipPath><clipPath id="4a95eb4d34"><path d="M 151.847656 102.816406 L 200.503906 99.792969 L 202.363281 129.734375 L 153.707031 132.757812 Z M 151.847656 102.816406 "/></clipPath><clipPath id="8ea468b06c"><path d="M 183 107 L 189 107 L 189 117 L 183 117 Z M 183 107 "/></clipPath><clipPath id="08c5e6d3ea"><path d="M 151.847656 102.816406 L 200.503906 99.792969 L 202.363281 129.734375 L 153.707031 132.757812 Z M 151.847656 102.816406 "/></clipPath><clipPath id="f125d250a4"><path d="M 151.847656 102.816406 L 200.503906 99.792969 L 202.363281 129.734375 L 153.707031 132.757812 Z M 151.847656 102.816406 "/></clipPath></defs><g id="8f5677014a"><g clip-rule="nonzero" clip-path="url(#ea74237831)"><path style=" stroke:none;fill-rule:nonzero;fill:#eb4001;fill-opacity:1;" d="M 170.6875 222.058594 C 179.585938 238.40625 189.613281 256.34375 182.691406 267.160156 C 183.824219 258.082031 180.347656 250.519531 175.21875 243.023438 C 178.882812 257.847656 173.535156 269.511719 163.964844 280.421875 C 168.90625 264.265625 171.671875 248.628906 163.625 232.898438 C 156.726562 242.488281 156.242188 256.941406 162.027344 280.035156 C 152.246094 269.042969 147.503906 257.15625 151.113281 242.757812 C 146.007812 249.664062 143.089844 257.273438 143.8125 266.074219 C 143.378906 266.105469 142.835938 266.894531 142.253906 260.9375 C 141.1875 249.945312 145.691406 240.023438 150.996094 225.695312 C 154.503906 216.214844 137.886719 243.800781 128.5 247.046875 C 121.363281 249.515625 114.148438 250.484375 106.109375 249.203125 C 119.097656 241.996094 128.429688 231.335938 137.949219 220.855469 C 116.105469 238.289062 113.730469 235.847656 102.664062 223.738281 C 114.226562 226.414062 124.121094 220.625 142.175781 212.753906 L 138.839844 207.835938 C 135.355469 211.566406 128.6875 210.007812 129.210938 200.941406 C 124.222656 204.777344 119.09375 205.226562 113.964844 202.957031 C 131.710938 180.566406 117.722656 202.117188 101.757812 196.230469 L 115.386719 185.222656 C 114.152344 182.277344 106.234375 195.035156 93.0625 188.226562 C 108.527344 177.714844 109.648438 176 113.523438 177.097656 C 119.386719 178.753906 120.359375 173.710938 116.136719 184.039062 C 127.300781 184.90625 126.75 172.84375 127.316406 184.671875 C 135.914062 184.425781 133.851562 174.367188 135.179688 186.910156 C 137.703125 188.003906 136.71875 176.429688 135.324219 174.132812 C 132.964844 170.253906 114.191406 164.371094 105.175781 148.65625 C 98.546875 137.109375 99.925781 127.910156 87.226562 120.234375 L 91.429688 131.191406 C 69.472656 114.816406 58.796875 110.566406 59.703125 76.988281 C 67.914062 102.664062 86.582031 117.03125 111.554688 124.660156 C 102.675781 143.785156 122.363281 150.199219 141.117188 159.722656 C 144.976562 161.683594 145.242188 161.84375 148.066406 158.445312 C 151.855469 153.886719 155.550781 149.183594 158.6875 144.164062 C 168.582031 128.339844 187.019531 130.789062 192.570312 140.871094 C 193.085938 141.808594 201.320312 145.800781 195.503906 154.992188 C 194.976562 153.179688 195.171875 154.113281 194.765625 151.460938 C 188.25 152.136719 174.839844 150.929688 184.019531 165.679688 C 203.027344 155.148438 226.816406 144.097656 217.074219 124.601562 C 239.996094 116.035156 262.496094 103.210938 268.070312 77.878906 C 269.171875 72.867188 271.980469 93.441406 262.683594 108.632812 C 258.195312 115.96875 253.546875 118.777344 237.539062 130.730469 L 240.992188 120.5625 C 226 124.722656 235.230469 146.570312 204.816406 167.054688 C 193.761719 174.496094 188.804688 173.433594 188.691406 177.597656 C 188.472656 185.8125 186.574219 186.921875 192.914062 189.324219 C 193.171875 185.210938 193.019531 186.910156 193.480469 182.8125 C 202.40625 186.824219 200.433594 187.921875 201.011719 179.609375 C 204.253906 182.089844 207.5 184.429688 212.234375 183.96875 L 209.726562 177.765625 C 220.363281 176.339844 216.207031 175.140625 235.5625 188.144531 C 227.96875 193.511719 219.46875 187.738281 212.984375 184.820312 C 217.160156 189.125 221.40625 193.011719 227.121094 196.011719 C 218.917969 199.105469 212.285156 197.378906 206.261719 192.035156 C 208.140625 196.316406 210.492188 200.15625 214.523438 202.777344 C 210.105469 205.367188 204.46875 204.75 198.832031 201.121094 C 198.128906 210.113281 191.378906 212.722656 187.222656 205.347656 C 180.046875 217.011719 180.433594 208.878906 176.023438 211.113281 C 204.207031 225.867188 210.851562 222.835938 218.117188 222.621094 C 212.453125 228.515625 206.699219 236.324219 198.382812 231.484375 C 190.21875 226.730469 182.234375 221.265625 180.988281 220.953125 C 191.066406 231.4375 201.40625 241.59375 214.644531 249.097656 C 182.023438 252.890625 175.089844 218.394531 170.695312 222.054688 Z M 162.867188 213.953125 C 176.882812 203.441406 187.476562 184.863281 180.457031 168.683594 C 178.457031 164.074219 176.558594 159.464844 178.734375 154.078125 C 171.871094 156.226562 168.8125 161.023438 171.0625 169.46875 C 162.769531 166.339844 154.636719 163.582031 145.882812 162.179688 C 150.6875 171.925781 182.273438 175.101562 162.867188 213.953125 Z M 189.128906 141.328125 C 183.453125 128.523438 156.035156 141.839844 175.289062 139.21875 C 184.164062 138.007812 183.902344 144.054688 189.128906 141.328125 Z M 187.722656 144.863281 L 194.34375 147.320312 C 192.761719 143.121094 191.09375 142.503906 187.722656 144.863281 Z M 28.5625 59.648438 C 26.332031 112.105469 60.035156 126.144531 92.351562 140.492188 C 69.695312 115.644531 45.199219 103.539062 28.5625 59.648438 Z M 261.503906 128.371094 C 287.191406 114.816406 300.617188 97.0625 300.015625 60.113281 C 271.1875 125.28125 198.484375 161.625 261.503906 128.371094 Z M 235.363281 149.96875 C 255.671875 146.183594 259.472656 145.671875 262.917969 143.730469 C 281.914062 133.027344 294.402344 124.300781 298 105.894531 C 283.324219 124.992188 234.039062 147.199219 235.363281 149.96875 Z M 72.25 145.816406 C 78.585938 146.835938 75.066406 146.808594 93.03125 149.792969 C 73.386719 135.039062 47.6875 125.21875 30.496094 105.691406 C 36.261719 131.386719 67.699219 145.085938 72.253906 145.816406 Z M 44.175781 137.605469 C 44.382812 136.171875 45.25 158.863281 98.058594 156.300781 C 87.078125 151.757812 73.628906 149.5 44.175781 137.605469 Z M 236.09375 156.417969 C 253.953125 157.074219 278.613281 154.222656 285.074219 137.519531 C 242.320312 154.957031 221.78125 155.894531 236.09375 156.417969 Z M 225.480469 161.167969 C 244.757812 165.546875 261.242188 171.980469 271.636719 159.5 C 250.527344 162.519531 269.722656 153.871094 225.460938 160.789062 L 225.480469 161.171875 Z M 102.402344 160.628906 C 81.617188 157.503906 79.019531 156.652344 74.113281 158.1875 C 59.238281 162.832031 55.363281 157.652344 58.4375 160.90625 C 67.597656 170.589844 76.402344 166.410156 102.511719 161.578125 Z M 220.382812 163.183594 C 235.03125 172.195312 247.179688 182.667969 258.785156 170.277344 C 245.554688 169.011719 233.601562 163.03125 220.382812 163.183594 Z M 107.359375 163.335938 C 112.492188 160.089844 76.554688 169.839844 70.019531 170.226562 C 81.746094 182.871094 94.050781 171.742188 107.359375 163.335938 Z M 112.644531 171.785156 C 99.917969 168.679688 104.640625 167.714844 82.742188 181.097656 C 95.179688 189.03125 107.625 175.597656 112.644531 171.785156 Z M 216.0625 171.9375 C 226.289062 180.503906 234.375 187.4375 246.285156 181.03125 C 221.394531 167.722656 230.085938 168.128906 216.0625 171.9375 Z M 216.0625 171.9375 "/></g><g clip-rule="nonzero" clip-path="url(#6a8b56adfe)"><g clip-rule="nonzero" clip-path="url(#8db712a516)"><g clip-rule="nonzero" clip-path="url(#b5c59aac52)"><path style=" stroke:none;fill-rule:nonzero;fill:#ea4001;fill-opacity:1;" d="M 192.355469 125.683594 C 182.421875 123.621094 172.636719 124.34375 162.933594 127.570312 C 160.992188 122.089844 158.207031 117.019531 154.992188 112.1875 C 153.800781 112.503906 153.09375 112.300781 152.699219 111.558594 C 152.347656 110.898438 152.519531 110.066406 153.105469 109.605469 C 153.679688 109.148438 154.480469 109.152344 155.042969 109.609375 C 155.703125 110.148438 155.773438 110.910156 155.21875 111.988281 C 158.203125 114.738281 161.246094 117.425781 165.390625 118.339844 C 168.417969 119.007812 170.847656 118.054688 172.652344 115.535156 C 174.179688 113.402344 174.925781 110.945312 175.484375 108.425781 C 175.691406 107.507812 175.835938 106.574219 176.003906 105.667969 C 174.46875 104.929688 173.964844 104.183594 174.207031 103.054688 C 174.414062 102.078125 175.246094 101.382812 176.226562 101.375 C 177.175781 101.363281 178.050781 102.03125 178.277344 102.933594 C 178.546875 104.03125 178.089844 104.867188 176.761719 105.578125 C 177.046875 106.472656 177.316406 107.394531 177.636719 108.300781 C 178.421875 110.546875 179.386719 112.699219 180.921875 114.550781 C 182.511719 116.46875 184.488281 117.617188 187.046875 117.335938 C 188.578125 117.167969 190.015625 116.589844 191.320312 115.753906 C 194.007812 114.03125 196.210938 111.789062 198.199219 109.261719 C 198.089844 109.097656 197.972656 108.941406 197.875 108.777344 C 197.5 108.136719 197.605469 107.355469 198.132812 106.851562 C 198.632812 106.375 199.414062 106.289062 200.007812 106.652344 C 200.628906 107.03125 200.902344 107.777344 200.675781 108.472656 C 200.457031 109.152344 199.757812 109.671875 199.050781 109.503906 C 198.492188 109.371094 198.347656 109.632812 198.160156 110.023438 C 196.679688 113.113281 195.238281 116.21875 194.234375 119.503906 C 193.613281 121.546875 192.992188 123.59375 192.355469 125.683594 Z M 192.355469 125.683594 "/></g></g></g><g clip-rule="nonzero" clip-path="url(#073d983409)"><g clip-rule="nonzero" clip-path="url(#09f3746502)"><g clip-rule="nonzero" clip-path="url(#d8de9efb5c)"><path style=" stroke:none;fill-rule:nonzero;fill:#ea4001;fill-opacity:1;" d="M 164.121094 131.957031 C 163.914062 131.082031 163.722656 130.277344 163.5 129.328125 C 172.878906 126.195312 182.367188 125.445312 192.121094 127.496094 C 192.058594 128.027344 192.003906 128.464844 191.957031 128.90625 C 191.910156 129.328125 191.871094 129.75 191.824219 130.199219 C 182.4375 128.417969 173.234375 129.09375 164.121094 131.957031 Z M 164.121094 131.957031 "/></g></g></g><g clip-rule="nonzero" clip-path="url(#05579e6434)"><g clip-rule="nonzero" clip-path="url(#4ac95a865a)"><g clip-rule="nonzero" clip-path="url(#4a95eb4d34)"><path style=" stroke:none;fill-rule:nonzero;fill:#ea4001;fill-opacity:1;" d="M 166.667969 111.546875 C 167.847656 113.25 169.023438 114.945312 170.214844 116.664062 C 169.480469 117.492188 167.25 118.003906 166.128906 117.554688 C 166.195312 115.566406 166.261719 113.597656 166.328125 111.679688 C 164.988281 111.15625 164.605469 110.742188 164.664062 109.972656 C 164.710938 109.34375 165.164062 108.816406 165.773438 108.675781 C 166.382812 108.535156 167.019531 108.8125 167.332031 109.359375 C 167.707031 110.003906 167.546875 110.636719 166.667969 111.546875 Z M 166.667969 111.546875 "/></g></g></g><g clip-rule="nonzero" clip-path="url(#8ea468b06c)"><g clip-rule="nonzero" clip-path="url(#08c5e6d3ea)"><g clip-rule="nonzero" clip-path="url(#f125d250a4)"><path style=" stroke:none;fill-rule:nonzero;fill:#ea4001;fill-opacity:1;" d="M 186.753906 110.304688 C 185.738281 109.445312 185.523438 108.867188 185.851562 108.160156 C 186.113281 107.597656 186.738281 107.257812 187.347656 107.34375 C 187.996094 107.433594 188.492188 107.957031 188.558594 108.613281 C 188.636719 109.390625 188.273438 109.859375 187.113281 110.320312 C 187.417969 112.246094 187.730469 114.210938 188.046875 116.195312 C 186.910156 116.730469 185.027344 116.570312 183.859375 115.84375 C 184.835938 113.980469 185.804688 112.121094 186.753906 110.304688 Z M 186.753906 110.304688 "/></g></g></g><path style=" stroke:none;fill-rule:nonzero;fill:#eb4001;fill-opacity:1;" d="M 181.8125 217.847656 L 328.140625 217.847656 L 328.140625 268.925781 L 181.8125 268.925781 L 181.8125 217.847656 "/><g style="fill:#ffffff;fill-opacity:1;"><g transform="translate(191.12769, 255.643181)"><path style="stroke:none" d="M 26.265625 -24.984375 L 26.265625 0 L 20.453125 0 L 9.421875 -13.3125 L 9.421875 0 L 2.5 0 L 2.5 -24.984375 L 8.3125 -24.984375 L 19.34375 -11.671875 L 19.34375 -24.984375 Z M 26.265625 -24.984375 "/></g></g><g style="fill:#ffffff;fill-opacity:1;"><g transform="translate(223.097348, 255.643181)"><path style="stroke:none" d="M 22.546875 -5.453125 L 22.546875 0 L 2.5 0 L 2.5 -24.984375 L 22.09375 -24.984375 L 22.09375 -19.515625 L 9.5 -19.515625 L 9.5 -15.3125 L 20.59375 -15.3125 L 20.59375 -10.03125 L 9.5 -10.03125 L 9.5 -5.453125 Z M 22.546875 -5.453125 "/></g></g><g style="fill:#ffffff;fill-opacity:1;"><g transform="translate(250.285913, 255.643181)"><path style="stroke:none" d="M 41.6875 -24.984375 L 33.578125 0 L 26.015625 0 L 21.234375 -15.203125 L 16.234375 0 L 8.671875 0 L 0.578125 -24.984375 L 7.84375 -24.984375 L 12.890625 -9.03125 L 18.171875 -24.984375 L 24.65625 -24.984375 L 29.6875 -8.890625 L 34.9375 -24.984375 Z M 41.6875 -24.984375 "/></g></g><g style="fill:#ffffff;fill-opacity:1;"><g transform="translate(295.74252, 255.643181)"><path style="stroke:none" d="M 11.28125 0.5 C 9.257812 0.5 7.296875 0.25 5.390625 -0.25 C 3.484375 -0.75 1.9375 -1.414062 0.75 -2.25 L 3.0625 -7.453125 C 4.1875 -6.722656 5.484375 -6.128906 6.953125 -5.671875 C 8.429688 -5.222656 9.882812 -5 11.3125 -5 C 14.019531 -5 15.375 -5.675781 15.375 -7.03125 C 15.375 -7.738281 14.988281 -8.265625 14.21875 -8.609375 C 13.445312 -8.960938 12.203125 -9.328125 10.484375 -9.703125 C 8.609375 -10.109375 7.039062 -10.539062 5.78125 -11 C 4.519531 -11.46875 3.4375 -12.210938 2.53125 -13.234375 C 1.625 -14.265625 1.171875 -15.644531 1.171875 -17.375 C 1.171875 -18.894531 1.585938 -20.269531 2.421875 -21.5 C 3.253906 -22.726562 4.5 -23.695312 6.15625 -24.40625 C 7.8125 -25.125 9.835938 -25.484375 12.234375 -25.484375 C 13.878906 -25.484375 15.5 -25.296875 17.09375 -24.921875 C 18.6875 -24.554688 20.09375 -24.015625 21.3125 -23.296875 L 19.125 -18.0625 C 16.75 -19.34375 14.441406 -19.984375 12.203125 -19.984375 C 10.796875 -19.984375 9.769531 -19.773438 9.125 -19.359375 C 8.488281 -18.941406 8.171875 -18.398438 8.171875 -17.734375 C 8.171875 -17.066406 8.550781 -16.566406 9.3125 -16.234375 C 10.070312 -15.898438 11.296875 -15.554688 12.984375 -15.203125 C 14.890625 -14.796875 16.46875 -14.359375 17.71875 -13.890625 C 18.96875 -13.429688 20.050781 -12.695312 20.96875 -11.6875 C 21.882812 -10.675781 22.34375 -9.300781 22.34375 -7.5625 C 22.34375 -6.0625 21.925781 -4.703125 21.09375 -3.484375 C 20.257812 -2.273438 19.007812 -1.304688 17.34375 -0.578125 C 15.675781 0.140625 13.65625 0.5 11.28125 0.5 Z M 11.28125 0.5 "/></g></g><g style="fill:#ff00ff;fill-opacity:1;"><g transform="translate(184.90437, 214.602467)"><path style="stroke:none" d="M 21.71875 0.96875 C 17.820312 0.96875 14.039062 0.488281 10.375 -0.46875 C 6.707031 -1.4375 3.726562 -2.722656 1.4375 -4.328125 L 5.90625 -14.359375 C 8.0625 -12.941406 10.5625 -11.796875 13.40625 -10.921875 C 16.25 -10.054688 19.039062 -9.625 21.78125 -9.625 C 27.007812 -9.625 29.625 -10.929688 29.625 -13.546875 C 29.625 -14.921875 28.878906 -15.9375 27.390625 -16.59375 C 25.898438 -17.257812 23.503906 -17.960938 20.203125 -18.703125 C 16.585938 -19.472656 13.5625 -20.304688 11.125 -21.203125 C 8.695312 -22.097656 6.613281 -23.53125 4.875 -25.5 C 3.132812 -27.46875 2.265625 -30.125 2.265625 -33.46875 C 2.265625 -36.40625 3.066406 -39.050781 4.671875 -41.40625 C 6.273438 -43.769531 8.671875 -45.640625 11.859375 -47.015625 C 15.046875 -48.390625 18.953125 -49.078125 23.578125 -49.078125 C 26.734375 -49.078125 29.847656 -48.722656 32.921875 -48.015625 C 35.992188 -47.304688 38.695312 -46.265625 41.03125 -44.890625 L 36.84375 -34.78125 C 32.257812 -37.25 27.8125 -38.484375 23.5 -38.484375 C 20.800781 -38.484375 18.832031 -38.082031 17.59375 -37.28125 C 16.351562 -36.476562 15.734375 -35.4375 15.734375 -34.15625 C 15.734375 -32.875 16.46875 -31.910156 17.9375 -31.265625 C 19.40625 -30.628906 21.765625 -29.96875 25.015625 -29.28125 C 28.679688 -28.5 31.71875 -27.660156 34.125 -26.765625 C 36.53125 -25.878906 38.613281 -24.460938 40.375 -22.515625 C 42.144531 -20.566406 43.03125 -17.921875 43.03125 -14.578125 C 43.03125 -11.679688 42.226562 -9.066406 40.625 -6.734375 C 39.019531 -4.398438 36.613281 -2.53125 33.40625 -1.125 C 30.195312 0.269531 26.300781 0.96875 21.71875 0.96875 Z M 21.71875 0.96875 "/></g></g><g style="fill:#ff00ff;fill-opacity:1;"><g transform="translate(235.554712, 214.602467)"><path style="stroke:none" d="M 23.375 -17.453125 L 18.28125 -12.03125 L 18.28125 0 L 4.8125 0 L 4.8125 -48.109375 L 18.28125 -48.109375 L 18.28125 -28.109375 L 36.90625 -48.109375 L 51.890625 -48.109375 L 32.234375 -26.8125 L 52.921875 0 L 37.109375 0 Z M 23.375 -17.453125 "/></g></g><g style="fill:#ff00ff;fill-opacity:1;"><g transform="translate(293.421017, 214.602467)"><path style="stroke:none" d="M 30.59375 -17.25 L 30.59375 0 L 16.984375 0 L 16.984375 -17.453125 L -1.375 -48.109375 L 12.984375 -48.109375 L 24.40625 -29 L 35.8125 -48.109375 L 49 -48.109375 Z M 30.59375 -17.25 "/></g></g><g style="fill:#00ffff;fill-opacity:1;"><g transform="translate(182.326773, 214.602467)"><path style="stroke:none" d="M 21.71875 0.96875 C 17.820312 0.96875 14.039062 0.488281 10.375 -0.46875 C 6.707031 -1.4375 3.726562 -2.722656 1.4375 -4.328125 L 5.90625 -14.359375 C 8.0625 -12.941406 10.5625 -11.796875 13.40625 -10.921875 C 16.25 -10.054688 19.039062 -9.625 21.78125 -9.625 C 27.007812 -9.625 29.625 -10.929688 29.625 -13.546875 C 29.625 -14.921875 28.878906 -15.9375 27.390625 -16.59375 C 25.898438 -17.257812 23.503906 -17.960938 20.203125 -18.703125 C 16.585938 -19.472656 13.5625 -20.304688 11.125 -21.203125 C 8.695312 -22.097656 6.613281 -23.53125 4.875 -25.5 C 3.132812 -27.46875 2.265625 -30.125 2.265625 -33.46875 C 2.265625 -36.40625 3.066406 -39.050781 4.671875 -41.40625 C 6.273438 -43.769531 8.671875 -45.640625 11.859375 -47.015625 C 15.046875 -48.390625 18.953125 -49.078125 23.578125 -49.078125 C 26.734375 -49.078125 29.847656 -48.722656 32.921875 -48.015625 C 35.992188 -47.304688 38.695312 -46.265625 41.03125 -44.890625 L 36.84375 -34.78125 C 32.257812 -37.25 27.8125 -38.484375 23.5 -38.484375 C 20.800781 -38.484375 18.832031 -38.082031 17.59375 -37.28125 C 16.351562 -36.476562 15.734375 -35.4375 15.734375 -34.15625 C 15.734375 -32.875 16.46875 -31.910156 17.9375 -31.265625 C 19.40625 -30.628906 21.765625 -29.96875 25.015625 -29.28125 C 28.679688 -28.5 31.71875 -27.660156 34.125 -26.765625 C 36.53125 -25.878906 38.613281 -24.460938 40.375 -22.515625 C 42.144531 -20.566406 43.03125 -17.921875 43.03125 -14.578125 C 43.03125 -11.679688 42.226562 -9.066406 40.625 -6.734375 C 39.019531 -4.398438 36.613281 -2.53125 33.40625 -1.125 C 30.195312 0.269531 26.300781 0.96875 21.71875 0.96875 Z M 21.71875 0.96875 "/></g></g><g style="fill:#00ffff;fill-opacity:1;"><g transform="translate(232.977114, 214.602467)"><path style="stroke:none" d="M 23.375 -17.453125 L 18.28125 -12.03125 L 18.28125 0 L 4.8125 0 L 4.8125 -48.109375 L 18.28125 -48.109375 L 18.28125 -28.109375 L 36.90625 -48.109375 L 51.890625 -48.109375 L 32.234375 -26.8125 L 52.921875 0 L 37.109375 0 Z M 23.375 -17.453125 "/></g></g><g style="fill:#00ffff;fill-opacity:1;"><g transform="translate(290.84342, 214.602467)"><path style="stroke:none" d="M 30.59375 -17.25 L 30.59375 0 L 16.984375 0 L 16.984375 -17.453125 L -1.375 -48.109375 L 12.984375 -48.109375 L 24.40625 -29 L 35.8125 -48.109375 L 49 -48.109375 Z M 30.59375 -17.25 "/></g></g><g style="fill:#282f6d;fill-opacity:1;"><g transform="translate(183.615573, 214.602467)"><path style="stroke:none" d="M 21.71875 0.96875 C 17.820312 0.96875 14.039062 0.488281 10.375 -0.46875 C 6.707031 -1.4375 3.726562 -2.722656 1.4375 -4.328125 L 5.90625 -14.359375 C 8.0625 -12.941406 10.5625 -11.796875 13.40625 -10.921875 C 16.25 -10.054688 19.039062 -9.625 21.78125 -9.625 C 27.007812 -9.625 29.625 -10.929688 29.625 -13.546875 C 29.625 -14.921875 28.878906 -15.9375 27.390625 -16.59375 C 25.898438 -17.257812 23.503906 -17.960938 20.203125 -18.703125 C 16.585938 -19.472656 13.5625 -20.304688 11.125 -21.203125 C 8.695312 -22.097656 6.613281 -23.53125 4.875 -25.5 C 3.132812 -27.46875 2.265625 -30.125 2.265625 -33.46875 C 2.265625 -36.40625 3.066406 -39.050781 4.671875 -41.40625 C 6.273438 -43.769531 8.671875 -45.640625 11.859375 -47.015625 C 15.046875 -48.390625 18.953125 -49.078125 23.578125 -49.078125 C 26.734375 -49.078125 29.847656 -48.722656 32.921875 -48.015625 C 35.992188 -47.304688 38.695312 -46.265625 41.03125 -44.890625 L 36.84375 -34.78125 C 32.257812 -37.25 27.8125 -38.484375 23.5 -38.484375 C 20.800781 -38.484375 18.832031 -38.082031 17.59375 -37.28125 C 16.351562 -36.476562 15.734375 -35.4375 15.734375 -34.15625 C 15.734375 -32.875 16.46875 -31.910156 17.9375 -31.265625 C 19.40625 -30.628906 21.765625 -29.96875 25.015625 -29.28125 C 28.679688 -28.5 31.71875 -27.660156 34.125 -26.765625 C 36.53125 -25.878906 38.613281 -24.460938 40.375 -22.515625 C 42.144531 -20.566406 43.03125 -17.921875 43.03125 -14.578125 C 43.03125 -11.679688 42.226562 -9.066406 40.625 -6.734375 C 39.019531 -4.398438 36.613281 -2.53125 33.40625 -1.125 C 30.195312 0.269531 26.300781 0.96875 21.71875 0.96875 Z M 21.71875 0.96875 "/></g></g><g style="fill:#282f6d;fill-opacity:1;"><g transform="translate(234.265914, 214.602467)"><path style="stroke:none" d="M 23.375 -17.453125 L 18.28125 -12.03125 L 18.28125 0 L 4.8125 0 L 4.8125 -48.109375 L 18.28125 -48.109375 L 18.28125 -28.109375 L 36.90625 -48.109375 L 51.890625 -48.109375 L 32.234375 -26.8125 L 52.921875 0 L 37.109375 0 Z M 23.375 -17.453125 "/></g></g><g style="fill:#282f6d;fill-opacity:1;"><g transform="translate(292.13222, 214.602467)"><path style="stroke:none" d="M 30.59375 -17.25 L 30.59375 0 L 16.984375 0 L 16.984375 -17.453125 L -1.375 -48.109375 L 12.984375 -48.109375 L 24.40625 -29 L 35.8125 -48.109375 L 49 -48.109375 Z M 30.59375 -17.25 "/></g></g></g></svg>